<?xml version="1.0" encoding="utf-8"?>

<!DOCTYPE svg PUBLIC "-//W3C//DTD SVG 1.1//EN" "http://www.w3.org/Graphics/SVG/1.1/DTD/svg11.dtd">
<svg version="1.1" id="Layer_1" xmlns="http://www.w3.org/2000/svg" xmlns:xlink="http://www.w3.org/1999/xlink" x="0px" y="0px"
	 viewBox="0 0 1844.885 1647.802" enable-background="new 0 0 1844.885 1647.802" xml:space="preserve">
<g>
	<path d="M616.711,60.338C818.124,153.721,917.906,480.3,920.388,485.443c1.617,0.34,3.245,0.649,4.894,0.883
		c58.065-149.19,168.856-336.43,316.06-398.785c131.864-55.402,327.504-21.353,464.01,26.862c1.84,0.628,3.67,1.383,5.298,2.489
		c-91.295-0.852-131.136,11.873-168.014,27.639c-9.66-3.521-19.117-7.596-28.788-11.064c-5.319,5.798-9.277,12.809-14.703,18.49
		c-130.392,27.016-158.699,27.84-258.942,114.662c-9.33-1.809-18.117-6.043-27.309-8.553c-2.617,11.032-3.702,22.373-5.99,33.479
		c-106.917,23.769-188.282,94.699-262.059,186.738c-2.245,2.798-4.521,5.585-6.426,8.638
		c7.824-5.075,199.643-172.662,393.232-202.941c75.949-12.215,152.191-3.097,256.676,55.82
		c108.354,61.523,199.305,153.377,229.824,189.589c-87.315-43.769-105.778-49.055-160.982-55.203
		c-6.926-7.649-13.319-15.788-20.16-23.501c-32.237,12.772-3.959,12.94-81.491-7.872c-72.095-20.082-103.98-31.745-222.462-4.862
		c-7.606-5.787-13.085-14.117-20.288-20.479c-7.479,8.511-13.692,18.085-21.234,26.532
		c-169.273-48.077-308.745,48.581-355.923,63.714c-1.085,1.575-0.5,3.681-0.638,5.479c0.489,13.33-1.798,26.511-3.734,39.639
		C924.636,740.961,773.43,971.656,759.64,1003.72c-65.274,148.952-25.329,351.986,24.575,506.011
		c2.5,7.117,4.415,14.458,7.404,21.405c-48.977,40.519-161.619,83.783-189.142,92.757
		C562.594,969.005,742.653,988.602,886.44,547.529c6.099-16.914,1.437-17.879,15.362-47.948
		c-104.488-62.768-224.33-108.081-342.369-83.406c-6.553-9.287-12.394-19.075-18.979-28.33c-7.319,6.107-14.022,12.915-21.32,19.054
		c-122.447-38.255-149.29-29.07-284.059-0.574c-6.883-3.447-13.458-7.489-20.256-11.085c-7.979,6.777-14.617,15.16-22.628,21.883
		c-40.285,0.274-81.026,5.158-165.461,42.82c89.677-87.301,229.086-182.728,357.071-209.59
		c183.928-39.003,386.149,105.763,522.362,236.42c-8.969-14.411-49.107-70.637-99.843-120.269
		c-50.891-50.65-107.636-82.003-160.057-96.374c-1.564-11.202-2.415-22.5-3.755-33.735c-9.298,1.479-18.309,4.915-27.575,6.819
		c-2.798-1.809-4.819-4.575-7.277-6.798c-85.557-83.446-114.824-88.203-244.729-124.301c-4.734-6.149-8.521-12.979-13.139-19.213
		c-9.979,2.67-19.671,6.341-29.596,9.202c-36.899-18.583-72.641-32.443-166.121-38.203C170.025,56.35,445.784-19.768,616.711,60.338
		z"/>
</g>
</svg>
